<?xml version="1.0" encoding="utf-8"?>
<!-- Generator: Adobe Illustrator 26.5.0, SVG Export Plug-In . SVG Version: 6.00 Build 0)  -->
<svg version="1.1" xmlns="http://www.w3.org/2000/svg" xmlns:xlink="http://www.w3.org/1999/xlink" x="0px" y="0px"
	 viewBox="0 0 234.7 279" style="enable-background:new 0 0 234.7 279;" xml:space="preserve">
<style type="text/css">
	.st0{fill:#FFE9E9;}
	.st1{fill:#00CCBE;}
	.st2{fill:#F0C27A;}
	.st3{fill:#FFFFFF;}
	.st4{fill:#94A3C0;}
	.st5{clip-path:url(#SVGID_00000150060853121783259710000009394996532507815075_);}
	.st6{fill:#2A3157;}
	.st7{fill:#505E83;}
	.st8{fill:#DC6457;}
	.st9{fill:#5D1111;}
	.st10{fill:#EA5764;}
	.st11{fill:#F98879;}
	.st12{fill:#F9FBFC;}
	.st13{fill:#FF5776;}
	.st14{fill:#FDB913;}
	.st15{fill:none;stroke:#2A3157;stroke-width:1.1246;stroke-miterlimit:10;}
	.st16{fill:none;stroke:#2A3157;stroke-width:2.2492;stroke-miterlimit:10;}
	.st17{fill:none;stroke:#2A3157;stroke-width:1.1246;stroke-linecap:round;stroke-linejoin:round;}
	.st18{fill:none;stroke:#2A3157;stroke-width:1.1246;stroke-linecap:round;stroke-linejoin:round;stroke-dasharray:0,5.4731;}
	.st19{fill:none;stroke:#2A3157;stroke-width:1.1246;stroke-linecap:round;stroke-linejoin:round;stroke-dasharray:0,5.9979;}
	.st20{fill:#A6D0F4;}
	.st21{opacity:0.53;fill:#FFFFFF;}
	.st22{fill:none;stroke:#4361C4;stroke-width:0.8539;stroke-linecap:round;stroke-linejoin:round;}
	.st23{fill:none;stroke:#4361C4;stroke-width:0.8539;stroke-linecap:round;stroke-linejoin:round;stroke-dasharray:0,2.5937;}
	.st24{fill:none;stroke:#2A3157;stroke-width:0.8435;stroke-linecap:round;stroke-linejoin:round;stroke-miterlimit:10;}
	.st25{fill:#232839;}
	.st26{fill:#C7D8F2;}
	.st27{fill:none;stroke:#02B2CA;stroke-width:0.8435;stroke-linecap:round;stroke-linejoin:round;stroke-miterlimit:10;}
</style>
<g id="BACKGROUND">
</g>
<g id="OBJECTS">
	<g>
		<g>
			<g>
				
					<ellipse transform="matrix(0.7071 -0.7071 0.7071 0.7071 -39.0545 107.7831)" class="st0" cx="110.6" cy="101" rx="88.1" ry="88.1"/>
				<g>
					<g>
						<path class="st1" d="M16.6,218.7c0.1,0,0.1,0.1,0.2,0.1c0.5,0.2,1.1,0.1,1.6-0.3l33.5-33.8c0.4-0.4,0.5-1,0.3-1.6
							c0-0.1-0.1-0.1-0.1-0.2L16.6,218.7z"/>
						<path class="st1" d="M13.2,217L13.2,217c0.6,0.3,1.3,0.2,1.7-0.2l35.2-35.5c0.5-0.5,0.5-1.2,0.2-1.7l0,0L13.2,217z"/>
						<path class="st1" d="M10.2,214.9c0.3,0.2,0.6,0.4,0.9,0.7l37.9-38.2c-0.2-0.3-0.4-0.6-0.7-0.8L10.2,214.9z"/>
						<path class="st1" d="M24.9,220.7c0.3,0,0.5,0,0.8,0.1c0.4,0,0.8-0.1,1.1-0.4L53.8,193c0.3-0.3,0.4-0.7,0.4-1.1
							c0-0.3,0-0.5-0.1-0.8L24.9,220.7z"/>
						<path class="st1" d="M36.7,219c0.8-0.3,1.7-0.7,2.5-1.1c0.1-0.1,0.3-0.2,0.4-0.3l11.7-11.8c0.1-0.1,0.2-0.2,0.3-0.4
							c0.4-0.8,0.7-1.6,1.1-2.5L36.7,219z"/>
						<path class="st1" d="M20.5,220c0.2,0,0.3,0.1,0.5,0.1c0.5,0.1,1,0,1.3-0.4l30.9-31.2c0.3-0.4,0.5-0.9,0.4-1.3
							c0-0.2-0.1-0.3-0.1-0.5L20.5,220z"/>
						<path class="st1" d="M30.1,220.6c0.4,0,0.9-0.1,1.3-0.2c0.3,0,0.6-0.2,0.8-0.4l21.5-21.7c0.2-0.2,0.4-0.5,0.4-0.8
							c0.1-0.4,0.1-0.9,0.2-1.3L30.1,220.6z"/>
						<path class="st1" d="M5.2,209.6c0.2,0.3,0.4,0.6,0.7,0.9l38-38.3c-0.3-0.2-0.6-0.4-0.9-0.6L5.2,209.6z"/>
						<path class="st1" d="M0.7,188.3c-0.2,0.2-0.4,0.5-0.4,0.8c-0.1,0.4-0.1,0.9-0.2,1.3l23.6-23.8c-0.4,0.1-0.9,0.1-1.3,0.2
							c-0.3,0.1-0.6,0.2-0.8,0.4L0.7,188.3z"/>
						<path class="st1" d="M3.4,180.5c-0.1,0.1-0.2,0.2-0.3,0.3c-0.5,0.9-0.9,1.8-1.2,2.7l14.9-15.1c-0.9,0.4-1.8,0.8-2.7,1.3
							c-0.1,0.1-0.2,0.2-0.3,0.3L3.4,180.5z"/>
						<path class="st1" d="M0.4,193.8c-0.3,0.3-0.4,0.7-0.4,1.1c0,0.3,0,0.6,0.1,0.8l29-29.2c-0.3,0-0.5,0-0.8,0
							c-0.4,0-0.8,0.1-1.1,0.4L0.4,193.8z"/>
						<path class="st1" d="M2.3,202.3c-0.4,0.4-0.5,1-0.3,1.5c0,0.1,0.1,0.1,0.1,0.2l35.3-35.6c-0.1,0-0.1-0.1-0.2-0.1
							c-0.5-0.2-1.1-0.1-1.5,0.3L2.3,202.3z"/>
						<path class="st1" d="M3.9,205.7c-0.4,0.5-0.5,1.1-0.2,1.7l0,0l37-37.3l0,0c-0.6-0.3-1.3-0.2-1.7,0.2L3.9,205.7z"/>
						<path class="st1" d="M45.8,173.8L7.5,212.4c0.2,0.3,0.5,0.5,0.8,0.8l38.3-38.6C46.3,174.3,46,174.1,45.8,173.8z"/>
						<path class="st1" d="M1,198.3c-0.3,0.3-0.5,0.8-0.4,1.3c0,0.2,0.1,0.3,0.1,0.5l32.7-33c-0.2,0-0.3-0.1-0.5-0.1
							c-0.5-0.1-1,0.1-1.3,0.4L1,198.3z"/>
					</g>
				</g>
				<circle class="st0" cx="172.1" cy="188" r="7.9"/>
				<rect x="33" y="62.4" class="st2" width="113.6" height="170.2"/>
				<g>
					<g>
						<g>
							<rect x="39" y="55.7" class="st3" width="113.6" height="170.2"/>
							<rect x="56.6" y="166.3" class="st1" width="34.9" height="3"/>
							<g>
								<rect x="56.6" y="182.8" class="st4" width="84" height="3"/>
								<rect x="56.6" y="190.9" class="st4" width="37" height="3"/>
							</g>
							<rect x="56.6" y="172.3" class="st1" width="12.7" height="3"/>
						</g>
						<path class="st1" d="M137.3,160.6h-83c-2.5,0-4.6-2.1-4.6-4.6V68.5c0-2.5,2.1-4.6,4.6-4.6h83c2.5,0,4.6,2.1,4.6,4.6V156
							C141.9,158.6,139.8,160.6,137.3,160.6z"/>
						<g>
							<defs>
								<rect id="SVGID_1_" x="49.7" y="63.9" width="92.2" height="96.7"/>
							</defs>
							<clipPath id="SVGID_00000165946855924482613040000013270358655545820817_">
								<use xlink:href="#SVGID_1_"  style="overflow:visible;"/>
							</clipPath>
							<g style="clip-path:url(#SVGID_00000165946855924482613040000013270358655545820817_);">
								<path class="st6" d="M138.5,169.7c-0.7-6-2.9-25-5.2-28.9c-2.6-4.7-27.5-15.1-27.5-15.1l-10.6,6.8l-10.7-6.7
									c0,0-24.8,10.6-27.4,15.3c-2.2,4-4.4,23-5,29L138.5,169.7z"/>
								<polygon class="st7" points="89.6,128.9 84.5,125.7 74.5,146.7 82.8,155.8 77.8,163.4 85,169.9 92.2,169.9 								"/>
								<polygon class="st7" points="101.5,128.9 106.6,125.7 116.8,146.6 108.5,155.7 113.6,163.3 106.4,169.8 99.2,169.8 								
									"/>
								<path class="st8" d="M105.4,104.4c0,0-2.5,14.7,0,24.8c0,0-2.9,2.6-9.3,7l-1.8,0.4c-6.5-4.3-9.8-7.2-9.8-7.2
									c1.6-10.2,0.1-24.9,0.1-24.9"/>
								<g>
									<path class="st9" d="M86.3,78.5c0,0,20.7-12.6,28.8-5.8c8.1,6.9-2.6,17.5-2.6,17.5s3.3,0.8,3.5,3.4
										c0.2,2.6-5.1,7.1-5.1,7.1l-32.7,0.1c0,0-5.5-9.7-4.9-14.4c0.6-4.7,4.7,0.2,4.7,0.2s4.4-10.6,6.5-10.6
										C86.5,76.1,86.3,78.5,86.3,78.5z"/>
									<path class="st10" d="M109.7,101.6c0,0,1.7-2.1,3.8-0.8c2.1,1.4-0.4,10-3.8,8.7C106.4,108.4,109.7,101.6,109.7,101.6z"/>
									<path class="st10" d="M80,101.7c0,0-1.7-2.1-3.8-0.8c-2.1,1.4,0.5,10,3.9,8.7C83.4,108.4,80,101.7,80,101.7z"/>
									<path class="st11" d="M95.1,77.9c0,0,10.9,1.1,14.1,8.9c3.2,7.8,2.3,23-0.8,27.5c-3.2,4.5-7.4,7.9-13.3,8.3h0
										c-5.9-0.4-10.2-3.8-13.3-8.3c-3.2-4.4-4.1-19.7-1-27.5c3.2-7.8,14.1-8.9,14.1-8.9L95.1,77.9z"/>
									<path class="st10" d="M94.1,109c0,0,1.6,0.7,3.5-0.1c0,0-0.4,1-1.2,1.4C95.6,110.7,94.2,110.1,94.1,109z"/>
									<path class="st9" d="M112.5,90.2c0,0-11.1,7.7-19.3,5.9c-8.1-1.8-2.1-9.5-2.1-9.5l-9.7,7.5c0,0,2,5.1-2.8,8.9
										c0,0-1.2-6.7-0.4-11.6c0.8-4.9,3.6-9.3,5.7-11c2-1.6,9.5-5.7,14.4-5.1C103.2,76,113.1,78.4,112.5,90.2z"/>
								</g>
								<path class="st12" d="M95.2,132.4l-10.7-6.7c0,0-0.4,0.2-1,0.4l5.4,43.7l12.5,0l5.2-43.9c-0.4-0.2-0.7-0.3-0.7-0.3
									L95.2,132.4z"/>
								<polygon class="st13" points="94.2,136.9 91.7,142.5 95.6,144.5 98.9,141.8 96.3,136.7 								"/>
								<polygon class="st13" points="91.4,169.9 100.6,169.8 97.2,141.1 94.2,142.7 								"/>
							</g>
						</g>
					</g>
					<g>
						<path class="st14" d="M61.6,202.6l1.2,3.7c0.1,0.2,0.2,0.3,0.4,0.3h3.9c0.4,0,0.6,0.6,0.3,0.8l-3.2,2.3
							c-0.2,0.1-0.2,0.3-0.2,0.5l1.2,3.7c0.1,0.4-0.3,0.8-0.7,0.5l-3.2-2.3c-0.2-0.1-0.4-0.1-0.5,0l-3.2,2.3
							c-0.4,0.3-0.8-0.1-0.7-0.5l1.2-3.7c0.1-0.2,0-0.4-0.2-0.5l-3.2-2.3c-0.4-0.3-0.2-0.8,0.3-0.8h3.9c0.2,0,0.4-0.1,0.4-0.3
							l1.2-3.7C60.9,202.2,61.5,202.2,61.6,202.6z"/>
						<path class="st14" d="M79.7,202.6l1.2,3.7c0.1,0.2,0.2,0.3,0.4,0.3h3.9c0.4,0,0.6,0.6,0.3,0.8l-3.2,2.3
							c-0.2,0.1-0.2,0.3-0.2,0.5l1.2,3.7c0.1,0.4-0.3,0.8-0.7,0.5l-3.2-2.3c-0.2-0.1-0.4-0.1-0.5,0l-3.2,2.3
							c-0.4,0.3-0.8-0.1-0.7-0.5l1.2-3.7c0.1-0.2,0-0.4-0.2-0.5l-3.2-2.3c-0.4-0.3-0.2-0.8,0.3-0.8h3.9c0.2,0,0.4-0.1,0.4-0.3
							l1.2-3.7C78.9,202.2,79.5,202.2,79.7,202.6z"/>
						<path class="st14" d="M97.7,202.6l1.2,3.7c0.1,0.2,0.2,0.3,0.4,0.3h3.9c0.4,0,0.6,0.6,0.3,0.8l-3.2,2.3
							c-0.2,0.1-0.2,0.3-0.2,0.5l1.2,3.7c0.1,0.4-0.3,0.8-0.7,0.5l-3.2-2.3c-0.2-0.1-0.4-0.1-0.5,0l-3.2,2.3
							c-0.4,0.3-0.8-0.1-0.7-0.5l1.2-3.7c0.1-0.2,0-0.4-0.2-0.5l-3.2-2.3c-0.4-0.3-0.2-0.8,0.3-0.8h3.9c0.2,0,0.4-0.1,0.4-0.3
							l1.2-3.7C97,202.2,97.6,202.2,97.7,202.6z"/>
						<path class="st14" d="M115.7,202.6l1.2,3.7c0.1,0.2,0.2,0.3,0.4,0.3h3.9c0.4,0,0.6,0.6,0.3,0.8l-3.2,2.3
							c-0.2,0.1-0.2,0.3-0.2,0.5l1.2,3.7c0.1,0.4-0.3,0.8-0.7,0.5l-3.2-2.3c-0.2-0.1-0.4-0.1-0.5,0l-3.2,2.3
							c-0.4,0.3-0.8-0.1-0.7-0.5l1.2-3.7c0.1-0.2,0-0.4-0.2-0.5l-3.2-2.3c-0.4-0.3-0.2-0.8,0.3-0.8h3.9c0.2,0,0.4-0.1,0.4-0.3
							l1.2-3.7C115,202.2,115.6,202.2,115.7,202.6z"/>
						<path class="st14" d="M133.8,202.6l1.2,3.7c0.1,0.2,0.2,0.3,0.4,0.3h3.9c0.4,0,0.6,0.6,0.3,0.8l-3.2,2.3
							c-0.2,0.1-0.2,0.3-0.2,0.5l1.2,3.7c0.1,0.4-0.3,0.8-0.7,0.5l-3.2-2.3c-0.2-0.1-0.4-0.1-0.5,0l-3.2,2.3
							c-0.4,0.3-0.8-0.1-0.7-0.5l1.2-3.7c0.1-0.2,0-0.4-0.2-0.5l-3.2-2.3c-0.4-0.3-0.2-0.8,0.3-0.8h3.9c0.2,0,0.4-0.1,0.4-0.3
							l1.2-3.7C133,202.2,133.6,202.2,133.8,202.6z"/>
					</g>
				</g>
				<g>
					<rect x="12.5" y="64.4" class="st6" width="6" height="6"/>
					<rect x="24.6" y="77.4" class="st6" width="3.1" height="3.1"/>
					<rect x="8.2" y="72.9" class="st6" width="2.2" height="2.2"/>
				</g>
				<g>
					<rect x="150.1" y="100.3" class="st3" width="75.9" height="47.2"/>
					<polyline class="st15" points="178.1,105.9 219.9,105.9 219.9,125 					"/>
					<polyline class="st16" points="143.9,118.7 143.9,105.9 156.2,105.9 					"/>
					<polyline class="st15" points="160.7,153.1 143.9,153.1 143.9,125.8 					"/>
					<polyline class="st16" points="219.9,139.4 219.9,153.1 180.1,153.1 					"/>
					<g>
						<g>
							<line class="st17" x1="200.5" y1="100.3" x2="200.5" y2="100.3"/>
							<line class="st18" x1="206" y1="100.3" x2="225.2" y2="100.3"/>
							<line class="st17" x1="227.9" y1="100.3" x2="227.9" y2="100.3"/>
							<line class="st19" x1="227.9" y1="106.3" x2="227.9" y2="121.3"/>
							<line class="st17" x1="227.9" y1="124.3" x2="227.9" y2="124.3"/>
						</g>
					</g>
					<circle class="st14" cx="181.2" cy="116.6" r="5.1"/>
					<rect x="157.1" y="125.4" class="st1" width="52.5" height="1.9"/>
					<rect x="171.5" y="131.4" class="st4" width="23.6" height="1.9"/>
					<rect x="167.6" y="137.4" class="st4" width="31.3" height="1.9"/>
				</g>
				<g>
					
						<rect x="164.4" y="218.6" transform="matrix(-0.7391 0.6736 -0.6736 -0.7391 443.2571 275.6767)" class="st20" width="7.7" height="10.2"/>
					<g>
						
							<ellipse transform="matrix(4.686848e-02 -0.9989 0.9989 4.686848e-02 -61.3399 336.6607)" class="st21" cx="145.7" cy="200.5" rx="24.5" ry="24.5"/>
						<g>
							<g>
								<line class="st22" x1="172.6" y1="176" x2="172.6" y2="176"/>
								<path class="st23" d="M170.8,174.1c-13.4-12.7-34.4-13.4-48.5-1.4"/>
								<line class="st22" x1="121.3" y1="173.6" x2="121.3" y2="173.6"/>
							</g>
						</g>
						<path class="st6" d="M123.4,220.8c11.2,12.3,30.3,13.2,42.6,2c12.3-11.2,13.2-30.3,2-42.6c-11.2-12.3-30.3-13.2-42.6-2
							C113.1,189.4,112.2,208.5,123.4,220.8z M127.7,217c-9.1-10-8.4-25.5,1.6-34.6c10-9.1,25.5-8.4,34.6,1.6
							c9.1,10,8.4,25.5-1.6,34.6S136.8,227,127.7,217z"/>
					</g>
					
						<rect x="181.8" y="217.5" transform="matrix(-0.7391 0.6736 -0.6736 -0.7391 497.1581 303.6383)" class="st6" width="16" height="61.3"/>
					
						<rect x="203.7" y="270.2" transform="matrix(-0.7391 0.6736 -0.6736 -0.7391 551.5024 330.7122)" class="st13" width="16" height="3.8"/>
				</g>
				<g>
					<g>
						<path class="st13" d="M176.9,61.3c0-6.4,5.2-11.6,11.6-11.6s11.6,5.2,11.6,11.6c0,0.1,0,0.2,0,0.4h18c0-0.1,0-0.2,0-0.4
							c0-16.4-13.3-29.6-29.6-29.6s-29.6,13.3-29.6,29.6c0,0.1,0,0.2,0,0.4h18C176.9,61.5,176.9,61.4,176.9,61.3z"/>
					</g>
					<g>
						<path class="st14" d="M208,83.6l-13.6-12.3c-1.7,1-3.7,1.6-5.9,1.6c-0.6,0-1.3-0.1-1.9-0.2v18.1c0.6,0,1.2,0.1,1.9,0.1
							C196,90.9,202.8,88.2,208,83.6z"/>
						<path class="st1" d="M176.9,61.7h-18c0.2,15.6,12.4,28.2,27.7,29.2V72.8C181.3,71.9,177.1,67.3,176.9,61.7z"/>
					</g>
				</g>
				<path class="st24" d="M154.8,61.5c0-18.6,15.1-33.7,33.7-33.7"/>
				<g>
					<rect x="189.7" y="167.2" class="st25" width="45" height="3.4"/>
					<g>
						<rect x="189.7" y="184.1" class="st26" width="31.1" height="3.4"/>
						<rect x="189.7" y="175.6" class="st26" width="16" height="3.4"/>
						<rect x="207.8" y="175.6" class="st26" width="4.8" height="3.4"/>
					</g>
				</g>
			</g>
			<line class="st24" x1="188.2" y1="64.7" x2="215.9" y2="92"/>
			<g>
				<line class="st24" x1="4.5" y1="135.9" x2="10.5" y2="141.9"/>
				<line class="st24" x1="10.1" y1="136.6" x2="16.1" y2="142.6"/>
				<line class="st24" x1="15.4" y1="136.6" x2="21.4" y2="142.6"/>
			</g>
			<g>
				<line class="st27" x1="198.7" y1="203.4" x2="204.7" y2="209.4"/>
				<line class="st27" x1="204.3" y1="204.1" x2="210.3" y2="210.1"/>
				<line class="st27" x1="209.5" y1="204.1" x2="215.5" y2="210.1"/>
			</g>
			<g>
				<rect x="37.5" y="30.9" class="st15" width="63" height="7.5"/>
				<rect x="103.5" y="41.4" class="st15" width="5.2" height="5.2"/>
			</g>
			<g>
				
					<rect x="211.4" y="227.4" transform="matrix(-1 -1.224647e-16 1.224647e-16 -1 428.834 460.7281)" class="st6" width="6" height="6"/>
				
					<rect x="202.2" y="217.3" transform="matrix(-1 -1.224647e-16 1.224647e-16 -1 407.4664 437.6737)" class="st6" width="3.1" height="3.1"/>
				
					<rect x="219.5" y="222.7" transform="matrix(-1 -1.224647e-16 1.224647e-16 -1 441.2045 447.6076)" class="st6" width="2.2" height="2.2"/>
			</g>
		</g>
		<polyline class="st15" points="33.2,201.3 33.2,232.6 56.7,232.6 		"/>
		<line class="st15" x1="64.7" y1="232.8" x2="75.7" y2="232.8"/>
		<g>
			<g>
				<circle class="st6" cx="132.7" cy="240.8" r="1"/>
				<circle class="st6" cx="141" cy="240.8" r="1"/>
				<circle class="st6" cx="149.3" cy="240.8" r="1"/>
				<circle class="st6" cx="157.7" cy="240.8" r="1"/>
			</g>
			<g>
				<circle class="st6" cx="132.7" cy="248" r="1"/>
				<circle class="st6" cx="141" cy="248" r="1"/>
				<circle class="st6" cx="149.3" cy="248" r="1"/>
				<circle class="st6" cx="157.7" cy="248" r="1"/>
			</g>
			<g>
				<circle class="st6" cx="132.7" cy="255.2" r="1"/>
				<circle class="st6" cx="141" cy="255.2" r="1"/>
				<circle class="st6" cx="149.3" cy="255.2" r="1"/>
				<circle class="st6" cx="157.7" cy="255.2" r="1"/>
			</g>
			<g>
				<circle class="st6" cx="132.7" cy="262.3" r="1"/>
				<circle class="st6" cx="141" cy="262.3" r="1"/>
				<circle class="st6" cx="149.3" cy="262.3" r="1"/>
				<circle class="st6" cx="157.7" cy="262.3" r="1"/>
			</g>
		</g>
		<g>
			<rect x="9.1" y="64.5" class="st6" width="5.3" height="5.3"/>
			<rect x="19.9" y="76" class="st6" width="2.8" height="2.8"/>
			<rect x="5.3" y="72" class="st6" width="2" height="2"/>
		</g>
		<g>
			<rect x="9.1" y="64.5" class="st6" width="5.3" height="5.3"/>
			<rect x="19.9" y="76" class="st6" width="2.8" height="2.8"/>
			<rect x="5.3" y="72" class="st6" width="2" height="2"/>
		</g>
		<g>
			<path class="st1" d="M153.2,38.7c-3.1-0.2-5.1-1.5-6.5-2.9c3.8-3.8,6.1-9,6.1-14.8c0-11.6-9.4-21-21-21c-11.6,0-21,9.4-21,21
				c0,11.6,9.4,21,21,21c3.6,0,7-0.9,10-2.5C148.1,41.4,153.2,38.7,153.2,38.7z"/>
			<path class="st15" d="M149.7,40.7c-3.1-0.2-5.1-1.5-6.5-2.9c3.8-3.8,6.1-9,6.1-14.8c0-11.6-9.4-21-21-21c-11.6,0-21,9.4-21,21
				c0,11.6,9.4,21,21,21c3.6,0,7-0.9,10-2.5C144.6,43.4,149.7,40.7,149.7,40.7z"/>
			<polygon class="st3" points="128.9,30.7 120.1,21.9 123.6,18.4 128.9,23.7 140.7,11.8 144.2,15.3 			"/>
		</g>
	</g>
</g>
</svg>
