<?xml version="1.0" encoding="utf-8"?>
<!-- Generator: Adobe Illustrator 26.5.0, SVG Export Plug-In . SVG Version: 6.00 Build 0)  -->
<svg version="1.1" id="Layer_1" xmlns="http://www.w3.org/2000/svg" xmlns:xlink="http://www.w3.org/1999/xlink" x="0px" y="0px"
	 viewBox="0 0 25 23.9" style="enable-background:new 0 0 25 23.9;" xml:space="preserve">
<style type="text/css">
	.st0{fill-rule:evenodd;clip-rule:evenodd;}
</style>
<g>
	<path class="st0" d="M7.5,23.9C3,22.1,0,17.7,0,12.5c0-2.3,0.6-4.6,1.8-6.4C2.8,5.8,4,5.7,5.2,5.7c4.4,0,8.3,1.8,11.1,4.6
		c2.6,2.6,4.3,6.1,4.6,10c-0.8-2.6-2.1-4.9-4-6.7c-2.8-2.8-6.7-4.6-11.1-4.6H4.9C4.3,10.5,4,12.3,4,14.1v0.1
		C4,17.9,5.4,21.3,7.5,23.9L7.5,23.9z"/>
	<path class="st0" d="M12.5,0C19.3,0,25,5.6,25,12.5c0,3.3-1.4,6.3-3.4,8.6c-0.1-4.4-2-8.3-4.8-11.2c-3-2.9-7.1-4.8-11.6-4.8
		c-1,0-2.1,0.1-2.9,0.3C4.5,2.1,8.2,0,12.5,0L12.5,0z M5.3,3.8h1.2v0.1C10.6,4.2,14.6,6,17.7,9c2.4,2.4,4,5.5,4.8,8.8
		c0.8-1.7,1.3-3.4,1.3-5.3c0-6.3-5.1-11.2-11.2-11.2C9.9,1.3,7.3,2.1,5.3,3.8L5.3,3.8z"/>
</g>
</svg>
