<?xml version="1.0" encoding="utf-8"?>
<!-- Generator: Adobe Illustrator 26.5.0, SVG Export Plug-In . SVG Version: 6.00 Build 0)  -->
<svg version="1.1" id="Layer_1" xmlns="http://www.w3.org/2000/svg" xmlns:xlink="http://www.w3.org/1999/xlink" x="0px" y="0px"
	 viewBox="0 0 360 360" style="enable-background:new 0 0 360 360;" xml:space="preserve">
<style type="text/css">
	.st0{fill-rule:evenodd;clip-rule:evenodd;fill:#BCBEC0;}
	.st1{fill-rule:evenodd;clip-rule:evenodd;fill:#808285;}
</style>
<rect class="st0" width="360" height="360"/>
<g>
	<path class="st1" d="M109.8,347.9C46.5,322.6,4.4,260.8,4.4,187.8c0-32.3,8.4-64.6,25.3-89.9c14-4.2,30.9-5.6,47.8-5.6
		c61.8,0,116.6,25.3,155.9,64.6c36.5,36.5,60.4,85.7,64.6,140.5c-11.2-36.5-29.5-68.8-56.2-94.1c-39.3-39.3-94.1-64.6-155.9-64.6
		H73.2c-8.4,21.1-12.6,46.4-12.6,71.6v1.4C60.6,263.6,80.3,311.4,109.8,347.9L109.8,347.9z"/>
	<path class="st1" d="M180,12.2c95.5,0,175.6,78.7,175.6,175.6c0,46.4-19.7,88.5-47.8,120.8c-1.4-61.8-28.1-116.6-67.4-157.3
		c-42.1-40.7-99.7-67.4-163-67.4c-14,0-29.5,1.4-40.7,4.2C67.6,41.7,119.6,12.2,180,12.2L180,12.2z M78.9,65.5h16.9v1.4
		c57.6,4.2,113.8,29.5,157.3,71.6c33.7,33.7,56.2,77.3,67.4,123.6c11.2-23.9,18.3-47.8,18.3-74.5c0-88.5-71.6-157.3-157.3-157.3
		C143.5,30.4,107,41.7,78.9,65.5L78.9,65.5z"/>
</g>
</svg>
